<?xml version="1.0" encoding="utf-8"?>
<svg viewBox="0 0 500 500" xmlns="http://www.w3.org/2000/svg" xmlns:bx="https://boxy-svg.com">
  <path d="M 242.424 397.532 H 524.035 L 519.035 377.532 L 569.035 407.532 L 519.035 437.532 L 524.035 417.532 H 242.424 V 397.532 Z" style="" transform="matrix(0.000039, -1, 1, 0.000039, -157.547836, 646.020264)" bx:shape="arrow 242.424 377.532 326.611 60 20 50 5 1@719e3755" bx:origin="0.494464 0.496827"/>
  <path d="M 242.424 397.532 H 524.035 L 519.035 377.532 L 569.035 407.532 L 519.035 437.532 L 524.035 417.532 H 242.424 V 397.532 Z" style="" transform="matrix(-0.000039, 1, -1, -0.000039, 657.547852, -145.406937)" bx:shape="arrow 242.424 377.532 326.611 60 20 50 5 1@719e3755" bx:origin="0.494464 0.496827"/>
  <path d="M 242.424 397.532 H 524.035 L 519.035 377.532 L 569.035 407.532 L 519.035 437.532 L 524.035 417.532 H 242.424 V 397.532 Z" style="" transform="matrix(1, 0.000039, -0.000039, 1, -145.713593, -157.547821)" bx:shape="arrow 242.424 377.532 326.611 60 20 50 5 1@719e3755" bx:origin="0.494464 0.496827"/>
  <path d="M 242.424 397.532 H 524.035 L 519.035 377.532 L 569.035 407.532 L 519.035 437.532 L 524.035 417.532 H 242.424 V 397.532 Z" style="" transform="matrix(-1, -0.000039, 0.000039, -1, 645.713623, 657.547852)" bx:shape="arrow 242.424 377.532 326.611 60 20 50 5 1@719e3755" bx:origin="0.494464 0.496827"/>
</svg>