<?xml version="1.0" encoding="utf-8"?>
<svg viewBox="0 0 500 500" xmlns="http://www.w3.org/2000/svg" xmlns:bx="https://boxy-svg.com">
  <path d="M 278.667 248.951 C 318.747 272.092 364.043 269.192 399.102 248.951 C 434.16 228.71 459.261 190.934 459.319 144.653 C 459.273 101.698 436.3 61.828 399.102 40.353 C 359.022 17.212 313.724 20.112 278.667 40.353 C 243.609 60.594 218.507 98.37 218.449 144.653 C 218.494 187.605 241.468 227.476 278.667 248.951 Z M 219.825 144.653 C 219.767 98.751 244.561 61.633 279.355 41.545 C 314.149 21.456 358.664 18.593 398.413 41.545 C 435.314 62.848 457.989 102.042 457.942 144.653 C 458 190.553 433.208 227.671 398.413 247.761 C 363.619 267.848 319.105 270.711 279.355 247.761 C 242.453 226.456 219.78 187.262 219.825 144.653 Z M 387.419 228.715 C 417.388 211.413 435.908 179.258 435.953 144.653 C 435.895 107.364 415.662 76.894 387.419 60.587 C 359.175 44.281 322.642 41.945 290.35 60.587 C 260.381 77.891 241.862 110.046 241.816 144.653 C 241.873 181.94 262.106 212.41 290.35 228.715 C 318.593 245.023 355.127 247.359 387.419 228.715 Z M 291.038 227.523 C 263.058 211.371 243.133 181.559 243.191 144.653 C 243.145 110.391 261.366 78.911 291.038 61.781 C 323 43.327 358.752 45.626 386.73 61.781 C 414.709 77.933 434.634 107.745 434.577 144.653 C 434.622 178.913 416.403 210.393 386.73 227.523 C 354.769 245.977 319.017 243.678 291.038 227.523 Z" style="fill: none;" transform="matrix(0.999667, 0.025798, -0.025798, 0.999667, 3.844522, -8.694389)"/>
  <path d="M 278.667 248.951 C 318.747 272.092 364.043 269.192 399.102 248.951 C 434.16 228.71 459.261 190.934 459.319 144.653 C 459.273 101.698 436.3 61.828 399.102 40.353 C 359.022 17.212 313.724 20.112 278.667 40.353 C 243.609 60.594 218.507 98.37 218.449 144.653 C 218.494 187.605 241.468 227.476 278.667 248.951 Z M 219.825 144.653 C 219.767 98.751 244.561 61.633 279.355 41.545 C 314.149 21.456 358.664 18.593 398.413 41.545 C 435.314 62.848 457.989 102.042 457.942 144.653 C 458 190.553 433.208 227.671 398.413 247.761 C 363.619 267.848 319.105 270.711 279.355 247.761 C 242.453 226.456 219.78 187.262 219.825 144.653 Z M 387.419 228.715 C 417.388 211.413 435.908 179.258 435.953 144.653 C 435.895 107.364 415.662 76.894 387.419 60.587 C 359.175 44.281 322.642 41.945 290.35 60.587 C 260.381 77.891 241.862 110.046 241.816 144.653 C 241.873 181.94 262.106 212.41 290.35 228.715 C 318.593 245.023 355.127 247.359 387.419 228.715 Z M 291.038 227.523 C 263.058 211.371 243.133 181.559 243.191 144.653 C 243.145 110.391 261.366 78.911 291.038 61.781 C 323 43.327 358.752 45.626 386.73 61.781 C 414.709 77.933 434.634 107.745 434.577 144.653 C 434.622 178.913 416.403 210.393 386.73 227.523 C 354.769 245.977 319.017 243.678 291.038 227.523 Z" style="fill: none;" transform="matrix(0.999667, 0.025798, -0.025798, 0.999667, 3.844522, -8.694389)"/>
  <path d="M 278.667 248.951 C 318.747 272.092 364.043 269.192 399.102 248.951 C 434.16 228.71 459.261 190.934 459.319 144.653 C 459.273 101.698 436.3 61.828 399.102 40.353 C 359.022 17.212 313.724 20.112 278.667 40.353 C 243.609 60.594 218.507 98.37 218.449 144.653 C 218.494 187.605 241.468 227.476 278.667 248.951 Z M 219.825 144.653 C 219.767 98.751 244.561 61.633 279.355 41.545 C 314.149 21.456 358.664 18.593 398.413 41.545 C 435.314 62.848 457.989 102.042 457.942 144.653 C 458 190.553 433.208 227.671 398.413 247.761 C 363.619 267.848 319.105 270.711 279.355 247.761 C 242.453 226.456 219.78 187.262 219.825 144.653 Z M 387.419 228.715 C 417.388 211.413 435.908 179.258 435.953 144.653 C 435.895 107.364 415.662 76.894 387.419 60.587 C 359.175 44.281 322.642 41.945 290.35 60.587 C 260.381 77.891 241.862 110.046 241.816 144.653 C 241.873 181.94 262.106 212.41 290.35 228.715 C 318.593 245.023 355.127 247.359 387.419 228.715 Z M 291.038 227.523 C 263.058 211.371 243.133 181.559 243.191 144.653 C 243.145 110.391 261.366 78.911 291.038 61.781 C 323 43.327 358.752 45.626 386.73 61.781 C 414.709 77.933 434.634 107.745 434.577 144.653 C 434.622 178.913 416.403 210.393 386.73 227.523 C 354.769 245.977 319.017 243.678 291.038 227.523 Z" style="fill: none;" transform="matrix(0.999667, 0.025798, -0.025798, 0.999667, 3.844522, -8.694389)"/>
  <path style="fill: none; stroke-width: 27px; stroke: rgb(0, 0, 0);" d="M 213.93 418.828 C 330.159 418.828 402.804 293.006 344.688 192.348 C 290.265 98.082 157.004 90.629 92.408 178.235" transform="matrix(-0.798636, 0.601815, -0.601815, -0.798636, 572.672434, 344.064501)"/>
  <path d="M -467.931 -205.114 L -403.825 -94.077 L -532.037 -94.077 L -467.931 -205.114 Z" style="" transform="matrix(-0.62932, -0.777146, -0.777146, 0.62932, -232.638644, -152.219563)" bx:shape="triangle -532.037 -205.114 128.212 111.037 0.5 0 1@0af8ce6f"/>
</svg>