<?xml version="1.0" encoding="utf-8"?>
<svg viewBox="0 0 500 500" xmlns="http://www.w3.org/2000/svg" xmlns:bx="https://boxy-svg.com">
  <path d="M 523.021 503.479 m -29.062 0 a 29.062 29.062 0 1 0 58.124 0 a 29.062 29.062 0 1 0 -58.124 0 Z M 523.021 503.479 m -24.121 0 a 24.121 24.121 0 0 1 48.242 0 a 24.121 24.121 0 0 1 -48.242 0 Z" style="" transform="matrix(1, -0.000036, 0.000036, 1, -468.02185, -91.844497)" bx:shape="ring 523.021 503.479 24.121 24.121 29.062 29.062 1@154d0d83"/>
  <circle style="fill: rgb(0, 128, 0);" cx="55.018" cy="411.616" r="24.1"/>
  <path d="M 514.581 349.174 m -29.062 0 a 29.062 29.062 0 1 0 58.124 0 a 29.062 29.062 0 1 0 -58.124 0 Z M 514.581 349.174 m -24.121 0 a 24.121 24.121 0 0 1 48.242 0 a 24.121 24.121 0 0 1 -48.242 0 Z" style="" transform="matrix(1, -0.000036, 0.000036, 1, -69.593109, -260.755829)" bx:shape="ring 514.581 349.174 24.121 24.121 29.062 29.062 1@bed8eb3a"/>
  <circle style="fill: rgb(0, 128, 0);" cx="445" cy="88.4" r="24.1"/>
  <line style="stroke-width: 6px; stroke: rgb(255, 0, 0);" x1="55" y1="411.6" x2="445" y2="88.4"/>
</svg>