<?xml version="1.0" encoding="utf-8"?>
<svg viewBox="0 0 500 500" xmlns="http://www.w3.org/2000/svg" xmlns:bx="https://boxy-svg.com">
  <path d="M 92.289 40.353 C 132.369 17.212 177.665 20.112 212.724 40.353 C 247.782 60.594 272.883 98.37 272.941 144.651 C 272.895 187.606 249.922 227.476 212.724 248.951 C 172.644 272.092 127.346 269.192 92.289 248.951 C 57.231 228.71 32.129 190.934 32.071 144.651 C 32.116 101.699 55.09 61.828 92.289 40.353 Z M 33.447 144.651 C 33.389 190.553 58.183 227.671 92.977 247.759 C 127.771 267.848 172.286 270.711 212.035 247.759 C 248.936 226.456 271.611 187.262 271.564 144.651 C 271.622 98.751 246.83 61.633 212.035 41.543 C 177.241 21.456 132.727 18.593 92.977 41.543 C 56.075 62.848 33.402 102.042 33.447 144.651 Z M 201.041 60.589 C 231.01 77.891 249.53 110.046 249.575 144.651 C 249.517 181.94 229.284 212.41 201.041 228.717 C 172.797 245.023 136.264 247.359 103.972 228.717 C 74.003 211.413 55.484 179.258 55.438 144.651 C 55.495 107.364 75.728 76.894 103.972 60.589 C 132.215 44.281 168.749 41.945 201.041 60.589 Z M 104.66 61.781 C 76.68 77.933 56.755 107.745 56.813 144.651 C 56.767 178.913 74.988 210.393 104.66 227.523 C 136.622 245.977 172.374 243.678 200.352 227.523 C 228.331 211.371 248.256 181.559 248.199 144.651 C 248.244 110.391 230.025 78.911 200.352 61.781 C 168.391 43.327 132.639 45.626 104.66 61.781 Z" style="fill: none;" transform="matrix(-0.999667, 0.025798, -0.025798, -0.999667, 308.692985, 285.321514)"/>
  <path d="M 92.289 40.353 C 132.369 17.212 177.665 20.112 212.724 40.353 C 247.782 60.594 272.883 98.37 272.941 144.651 C 272.895 187.606 249.922 227.476 212.724 248.951 C 172.644 272.092 127.346 269.192 92.289 248.951 C 57.231 228.71 32.129 190.934 32.071 144.651 C 32.116 101.699 55.09 61.828 92.289 40.353 Z M 33.447 144.651 C 33.389 190.553 58.183 227.671 92.977 247.759 C 127.771 267.848 172.286 270.711 212.035 247.759 C 248.936 226.456 271.611 187.262 271.564 144.651 C 271.622 98.751 246.83 61.633 212.035 41.543 C 177.241 21.456 132.727 18.593 92.977 41.543 C 56.075 62.848 33.402 102.042 33.447 144.651 Z M 201.041 60.589 C 231.01 77.891 249.53 110.046 249.575 144.651 C 249.517 181.94 229.284 212.41 201.041 228.717 C 172.797 245.023 136.264 247.359 103.972 228.717 C 74.003 211.413 55.484 179.258 55.438 144.651 C 55.495 107.364 75.728 76.894 103.972 60.589 C 132.215 44.281 168.749 41.945 201.041 60.589 Z M 104.66 61.781 C 76.68 77.933 56.755 107.745 56.813 144.651 C 56.767 178.913 74.988 210.393 104.66 227.523 C 136.622 245.977 172.374 243.678 200.352 227.523 C 228.331 211.371 248.256 181.559 248.199 144.651 C 248.244 110.391 230.025 78.911 200.352 61.781 C 168.391 43.327 132.639 45.626 104.66 61.781 Z" style="fill: none;" transform="matrix(-0.999667, 0.025798, -0.025798, -0.999667, 308.692985, 285.321514)"/>
  <path d="M 92.289 40.353 C 132.369 17.212 177.665 20.112 212.724 40.353 C 247.782 60.594 272.883 98.37 272.941 144.651 C 272.895 187.606 249.922 227.476 212.724 248.951 C 172.644 272.092 127.346 269.192 92.289 248.951 C 57.231 228.71 32.129 190.934 32.071 144.651 C 32.116 101.699 55.09 61.828 92.289 40.353 Z M 33.447 144.651 C 33.389 190.553 58.183 227.671 92.977 247.759 C 127.771 267.848 172.286 270.711 212.035 247.759 C 248.936 226.456 271.611 187.262 271.564 144.651 C 271.622 98.751 246.83 61.633 212.035 41.543 C 177.241 21.456 132.727 18.593 92.977 41.543 C 56.075 62.848 33.402 102.042 33.447 144.651 Z M 201.041 60.589 C 231.01 77.891 249.53 110.046 249.575 144.651 C 249.517 181.94 229.284 212.41 201.041 228.717 C 172.797 245.023 136.264 247.359 103.972 228.717 C 74.003 211.413 55.484 179.258 55.438 144.651 C 55.495 107.364 75.728 76.894 103.972 60.589 C 132.215 44.281 168.749 41.945 201.041 60.589 Z M 104.66 61.781 C 76.68 77.933 56.755 107.745 56.813 144.651 C 56.767 178.913 74.988 210.393 104.66 227.523 C 136.622 245.977 172.374 243.678 200.352 227.523 C 228.331 211.371 248.256 181.559 248.199 144.651 C 248.244 110.391 230.025 78.911 200.352 61.781 C 168.391 43.327 132.639 45.626 104.66 61.781 Z" style="fill: none;" transform="matrix(-0.999667, 0.025798, -0.025798, -0.999667, 308.692985, 285.321514)"/>
  <path style="fill: none; stroke-width: 27px; stroke: rgb(0, 0, 0);" d="M 247.77 116.85 C 363.999 116.85 436.644 242.672 378.528 343.33 C 324.105 437.596 190.844 445.049 126.248 357.443" transform="matrix(0.798636, 0.601815, -0.601815, 0.798636, 214.070827, -104.112418)"/>
  <path d="M 596.143 205.114 L 660.249 316.151 L 532.037 316.151 L 596.143 205.114 Z" style="" transform="matrix(0.62932, -0.777146, 0.777146, 0.62932, -264.42099, 416.556702)" bx:shape="triangle 532.037 205.114 128.212 111.037 0.5 0 1@f9ee2364"/>
</svg>