<?xml version="1.0" encoding="utf-8"?>
<svg viewBox="0 0 500 500" xmlns="http://www.w3.org/2000/svg" xmlns:bx="https://boxy-svg.com">
  <path d="M 447.326 467.893 m -214.421 0 a 214.421 214.421 0 1 0 428.842 0 a 214.421 214.421 0 1 0 -428.842 0 Z M 447.326 467.893 m -193 0 a 193 192.98 0 0 1 386 0 a 193 192.98 0 0 1 -386 0 Z" style="" transform="matrix(1, 0.000019, -0.000019, 1, -197.3172, -217.900732)" bx:shape="ring 447.326 467.893 193 192.98 214.421 214.421 1@de15969d"/>
  <path d="M 522.998 507.127 m -29.062 0 a 29.062 29.062 0 1 0 58.124 0 a 29.062 29.062 0 1 0 -58.124 0 Z M 522.998 507.127 m -24.121 0 a 24.121 24.121 0 0 1 48.242 0 a 24.121 24.121 0 0 1 -48.242 0 Z" style="" transform="matrix(1, -0.000036, 0.000036, 1, -273.016423, -257.108731)" bx:shape="ring 522.998 507.127 24.121 24.121 29.062 29.062 1@047c815f"/>
  <circle style="fill: rgb(0, 128, 0);" cx="250" cy="250" r="24.1"/>
  <path d="M 523.021 503.479 m -29.062 0 a 29.062 29.062 0 1 0 58.124 0 a 29.062 29.062 0 1 0 -58.124 0 Z M 523.021 503.479 m -24.121 0 a 24.121 24.121 0 0 1 48.242 0 a 24.121 24.121 0 0 1 -48.242 0 Z" style="" transform="matrix(1, -0.000036, 0.000036, 1, -476.439361, -253.460663)" bx:shape="ring 523.021 503.479 24.121 24.121 29.062 29.062 1@154d0d83"/>
  <circle style="fill: rgb(0, 128, 0);" cx="46.6" cy="250" r="24.1"/>
  <path d="M 522.975 510.775 m -29.062 0 a 29.062 29.062 0 1 0 58.124 0 a 29.062 29.062 0 1 0 -58.124 0 Z M 522.975 510.775 m -24.121 0 a 24.121 24.121 0 0 1 48.242 0 a 24.121 24.121 0 0 1 -48.242 0 Z" style="" transform="matrix(1, -0.000036, 0.000036, 1, -69.593109, -260.755829)" bx:shape="ring 522.975 510.775 24.121 24.121 29.062 29.062 1@e16f6697"/>
  <circle style="fill: rgb(0, 128, 0);" cx="453.4" cy="250" r="24.1"/>
</svg>